# xmcd CD database file
#
# Track frame offsets:
#	150
#	7919
#	26692
#	47887
#	52018
#	67096
#	71972
#	90038
#	100950
#	111734
#	136201
#	151455
#	157688
#	174950
#	199413
#
# Disc length: 2893 seconds
#
# Revision: 1
# Processed by: cddbd v1.5.2PL0 Copyright (c) Steve Scherf et al.
# Submitted via: CDex 1.70beta3
#
DISCID=cb0b4b0f
DTITLE=J.A.M - Just Another Mind
DYEAR=2010
DGENRE=Jazz
TTITLE0=SPIRIT (Introduction) 
TTITLE1=QUIET STORM 
TTITLE2=産業革命 
TTITLE3=JOINT AT MOMENT 
TTITLE4=LOST 
TTITLE5=CHILD 
TTITLE6=AT THE RIGHT MOMENT 
TTITLE7=L.O.V.E.J.A.M featuring Jose James 
TTITLE8=BLUESTONE 
TTITLE9=J’S SCAT 
TTITLE10=BRAZIL 
TTITLE11=AFTER BRAZIL 
TTITLE12=A NIGHT IN TUNISIA 
TTITLE13=MINT 
TTITLE14=STRASBOURG - ST.DENIS 
EXTD=YEAR: 2010
EXTT0=
EXTT1=
EXTT2=
EXTT3=
EXTT4=
EXTT5=
EXTT6=
EXTT7=
EXTT8=
EXTT9=
EXTT10=
EXTT11=
EXTT12=
EXTT13=
EXTT14=
PLAYORDER=
